<?xml version="1.0" encoding="UTF-8" standalone="no"?>
<svg
   xmlns:dc="http://purl.org/dc/elements/1.1/"
   xmlns:cc="http://creativecommons.org/ns#"
   xmlns:rdf="http://www.w3.org/1999/02/22-rdf-syntax-ns#"
   xmlns:svg="http://www.w3.org/2000/svg"
   xmlns="http://www.w3.org/2000/svg"
   xmlns:sodipodi="http://sodipodi.sourceforge.net/DTD/sodipodi-0.dtd"
   xmlns:inkscape="http://www.inkscape.org/namespaces/inkscape"
   width="186.5748mm"
   height="133.97148mm"
   viewBox="0 0 186.5748 133.97148"
   version="1.1"
   id="svg8"
   inkscape:version="1.0.2 (e86c870879, 2021-01-15)"
   sodipodi:docname="cloud.svg">
  <defs
     id="defs2" />
  <sodipodi:namedview
     id="base"
     pagecolor="#ffffff"
     bordercolor="#666666"
     borderopacity="1.0"
     inkscape:pageopacity="0.0"
     inkscape:pageshadow="2"
     inkscape:zoom="0.35"
     inkscape:cx="346.89366"
     inkscape:cy="354.66488"
     inkscape:document-units="mm"
     inkscape:current-layer="layer1"
     inkscape:document-rotation="0"
     showgrid="false"
     inkscape:window-width="1920"
     inkscape:window-height="1054"
     inkscape:window-x="0"
     inkscape:window-y="0"
     inkscape:window-maximized="1" />
  <metadata
     id="metadata5">
    <rdf:RDF>
      <cc:Work
         rdf:about="">
        <dc:format>image/svg+xml</dc:format>
        <dc:type
           rdf:resource="http://purl.org/dc/dcmitype/StillImage" />
        <dc:title></dc:title>
      </cc:Work>
    </rdf:RDF>
  </metadata>
  <g
     inkscape:label="Layer 1"
     inkscape:groupmode="layer"
     id="layer1"
     transform="translate(-14.051053,-54.328251)">
    <path
       id="rect833"
       style="opacity:0.97;fill:#ffffff;stroke-width:9.79623;stroke-linecap:square;paint-order:markers fill stroke;fill-opacity:1"
       d="M 453.75,0 A 167.53313,167.53313 0 0 0 309.84766,81.748047 167.53313,167.53313 0 0 0 249.18359,70.380859 167.53313,167.53313 0 0 0 82.236328,223.92188 C 33.392335,248.34177 0,298.76972 0,357.29102 0,439.86924 66.480365,506.34961 149.05859,506.34961 h 407.04688 c 82.57823,0 149.05859,-66.48037 149.05859,-149.05859 0,-62.39011 -37.95288,-115.58179 -92.12109,-137.86524 A 167.53313,167.53313 0 0 0 621.2832,167.5332 167.53313,167.53313 0 0 0 453.75,0 Z"
       transform="matrix(0.26458333,0,0,0.26458333,14.051053,54.328251)" />
  </g>
</svg>
